<?xml version="1.0" encoding="utf-8"?>
<!-- Generator: Adobe Illustrator 23.0.3, SVG Export Plug-In . SVG Version: 6.00 Build 0)  -->
<svg version="1.1" id="Layer_1" xmlns="http://www.w3.org/2000/svg" xmlns:xlink="http://www.w3.org/1999/xlink" x="0px" y="0px" viewBox="0 0 841.89 595.28" style="enable-background:new 0 0 841.89 595.28;" xml:space="preserve">
    <style type="text/css">
        .st0 {
            fill: #231F20;
        }

    </style>
    <g xmlns="http://www.w3.org/2000/svg" id="XMLID_523_">

        <g id="XMLID_1_">
            <path id="XMLID_12_" class="st0" d="M523.1,302.31c-3.11-0.23-16.43-0.48-19.55-0.66c-2.68-0.15-18.31-0.21-20.99-0.29    c-2.82-0.08-17.62-0.19-20.44-0.2h-17.76c14.4-3.79,28.03-11.3,39.31-22.59c33.97-33.97,33.97-89.04,0-123.01    c-17.23-17.23-39.9-25.71-62.49-25.45h-75.08v7.99h39.56c-9.05,4.18-17.53,10-24.99,17.46c-33.97,33.97-33.97,89.04,0,123.01    c16.98,16.98,39.24,25.48,61.5,25.48h16.4v-1.56l0,0v1.56h23.55c0,0,17.03-0.01,20.44-0.09c3.92-0.09,17.08-0.21,20.99-0.39    c2.85-0.13,16.7-0.34,19.55-0.54c0.6,0,6.59-0.38,6.59-0.38S523.62,302.31,523.1,302.31z M366.99,277.61    c-31.41-31.41-31.41-82.33,0-113.74c31.41-31.41,82.33-31.41,113.74,0c31.41,31.41,31.41,82.33,0,113.74    c-15.68,15.68-36.22,23.53-56.77,23.55h-0.2C403.2,301.14,382.66,293.29,366.99,277.61z" />
            <rect id="XMLID_13_" x="330.13" y="130.12" class="st0" width="7.99" height="7.99" />
            <rect id="XMLID_14_" x="314.16" y="130.12" class="st0" width="7.99" height="7.99" />
        </g>
    </g>
</svg>
