<?xml version="1.0" standalone="no"?>
<!DOCTYPE svg PUBLIC "-//W3C//DTD SVG 20010904//EN"
 "http://www.w3.org/TR/2001/REC-SVG-20010904/DTD/svg10.dtd">
<svg version="1.0" xmlns="http://www.w3.org/2000/svg"
 width="106.000000pt" height="106.000000pt" viewBox="0 0 106.000000 106.000000"
 preserveAspectRatio="xMidYMid meet">
<metadata>
Created by potrace 1.11, written by Peter Selinger 2001-2013
</metadata>
<g transform="translate(0.000000,106.000000) scale(0.100000,-0.100000)"
fill="#000000" stroke="none">
<path d="M30 910 c0 -13 7 -20 20 -20 13 0 20 7 20 20 0 13 -7 20 -20 20 -13
0 -20 -7 -20 -20z"/>
<path d="M108 924 c-12 -11 4 -34 22 -34 12 0 17 6 16 18 -3 17 -27 28 -38 16z"/>
<path d="M180 910 c0 -18 7 -20 68 -21 37 -1 75 -1 85 0 25 3 21 -7 -12 -23
-40 -21 -106 -88 -135 -138 -120 -208 -39 -465 181 -574 l58 -29 270 -3 c148
-2 267 -1 264 2 -3 4 -70 7 -147 8 -78 1 -142 3 -142 4 0 1 21 13 48 25 68 33
147 117 184 194 53 115 46 261 -19 372 -34 58 -103 124 -159 152 -86 43 -137
51 -346 51 -191 0 -198 -1 -198 -20z m488 -54 c202 -72 303 -308 213 -501 -33
-72 -69 -116 -125 -154 -192 -131 -451 -62 -549 146 -98 211 16 457 241 518
57 16 162 11 220 -9z"/>
</g>
</svg>
